<svg xmlns="http://www.w3.org/2000/svg" viewBox="95 0 210 340" width="100%" height="100%">
  <defs>
    <linearGradient id="mapGrad" x1="0%" y1="0%" x2="100%" y2="100%">
      <stop offset="0%" style="stop-color:rgba(212,175,55,0.04)"/>
      <stop offset="100%" style="stop-color:rgba(5,150,105,0.02)"/>
    </linearGradient>
  </defs>
  <g fill="rgba(212,175,55,0.04)" stroke="rgba(212,175,55,0.08)" stroke-width="0.5">
    <path d="M168,240 C168,240 170,242 168,244 C166,242 168,240 168,240Z"/>
    <path d="M130,70 L170,65 L180,80 L175,95 L165,100 L155,120 L145,125 L140,140 L145,155 L155,165 L150,180 L140,185 L130,180 L125,170 L120,155 L115,140 L110,125 L115,110 L120,95 L125,80Z"/>
    <path d="M185,10 L192,15 L195,25 L198,35 L200,50 L202,60 L205,70 L208,80 L210,95 L208,110 L205,125 L202,135 L198,145 L195,155 L190,165 L185,170 L180,175 L178,168 L182,158 L185,148 L182,138 L178,128 L180,118 L182,108 L180,98 L178,88 L180,78 L185,68 L188,55 L190,42 L188,30 L185,20Z"/>
    <path d="M155,165 L165,170 L175,172 L180,178 L178,185 L175,190 L168,195 L160,192 L155,188 L150,185 L148,178 L152,172Z"/>
    <path d="M158,60 L168,58 L175,65 L178,75 L175,85 L170,90 L165,88 L160,85 L155,80 L152,72 L154,65Z"/>
    <path d="M112,10 L120,8 L128,12 L132,20 L130,30 L128,40 L125,50 L122,60 L118,70 L115,80 L110,85 L108,75 L105,65 L103,55 L102,45 L100,35 L102,25 L105,18 L108,12Z"/>
    <path d="M155,200 L162,198 L170,202 L175,210 L172,218 L168,222 L162,220 L158,215 L155,210 L153,205Z"/>
    <path d="M130,250 L145,245 L160,248 L175,250 L190,252 L200,255 L195,260 L180,262 L165,260 L150,258 L140,256 L130,255Z"/>
    <path d="M200,255 L215,258 L230,260 L240,258 L235,262 L220,265 L205,262Z"/>
    <path d="M240,258 L255,255 L270,260 L280,265 L290,268 L295,272 L285,275 L270,270 L255,265 L245,262Z"/>
    <path d="M220,40 L228,38 L232,45 L230,55 L225,58 L220,55 L218,48Z"/>
    <path d="M222,62 L230,60 L235,65 L232,75 L228,78 L224,75 L220,68Z"/>
    <path d="M226,82 L234,80 L238,85 L236,92 L232,94 L228,90 L225,85Z"/>
    <path d="M230,100 L236,98 L240,102 L238,108 L234,110 L230,106Z"/>
    <path d="M270,282 L278,280 L282,284 L280,290 L275,288 L270,285Z"/>
  </g>
  <circle cx="168" cy="228" r="3" fill="rgba(212,175,55,0.08)" stroke="rgba(212,175,55,0.15)" stroke-width="0.5"/>
  <circle cx="230" cy="258" r="2" fill="rgba(212,175,55,0.08)" stroke="rgba(212,175,55,0.15)" stroke-width="0.5"/>
</svg>